<?xml version="1.0" encoding="UTF-8" standalone="no"?>
<!-- Created with Inkscape (http://www.inkscape.org/) -->

<svg
   width="26.120081mm"
   height="26.120081mm"
   viewBox="0 0 26.120081 26.120081"
   version="1.1"
   id="svg1"
   xml:space="preserve"
   inkscape:version="1.4.2 (ebf0e940d0, 2025-05-08)"
   sodipodi:docname="ai.svg"
   xmlns:inkscape="http://www.inkscape.org/namespaces/inkscape"
   xmlns:sodipodi="http://sodipodi.sourceforge.net/DTD/sodipodi-0.dtd"
   xmlns="http://www.w3.org/2000/svg"
   xmlns:svg="http://www.w3.org/2000/svg"><sodipodi:namedview
     id="namedview1"
     pagecolor="#ffffff"
     bordercolor="#000000"
     borderopacity="0.25"
     inkscape:showpageshadow="2"
     inkscape:pageopacity="0.0"
     inkscape:pagecheckerboard="0"
     inkscape:deskcolor="#d1d1d1"
     inkscape:document-units="mm"
     inkscape:zoom="2.0157702"
     inkscape:cx="9.6737219"
     inkscape:cy="105.17072"
     inkscape:window-width="1920"
     inkscape:window-height="1003"
     inkscape:window-x="0"
     inkscape:window-y="0"
     inkscape:window-maximized="1"
     inkscape:current-layer="layer1" /><defs
     id="defs1"><clipPath
       clipPathUnits="userSpaceOnUse"
       id="clipPath4"><rect
         style="fill:#e0e0e0;fill-opacity:1;stroke-width:0.289377"
         id="rect5"
         width="125.29688"
         height="70.166245"
         x="44.178745"
         y="108.59062" /></clipPath></defs><g
     inkscape:label="Camada 1"
     inkscape:groupmode="layer"
     id="layer1"
     transform="translate(-114.98086,-43.839737)"><rect
       style="opacity:1;fill:#fcc681;fill-opacity:0;stroke-width:0.184744"
       id="rect6"
       width="26.120081"
       height="26.120081"
       x="114.98086"
       y="43.839737" /><g
       id="g6"
       transform="translate(-1.0757797,3.7185285)"><path
         id="Vector"
         d="m 134.0987,43.834034 c -0.889,6.185956 -2.82046,7.085539 -5.70971,8.466664 -0.381,0.179917 -0.37042,0.719667 0.0106,0.894292 1.7145,0.799042 4.79425,0.799042 5.94254,8.260292 0.0794,0.518583 0.96309,0.502708 0.96838,-0.02117 0.0159,-4.466167 1.10596,-7.789333 4.60904,-8.080375 0.39158,-0.03175 0.46567,-0.746125 0.09,-0.873125 -3.09563,-1.005417 -4.50321,-1.502833 -4.94771,-8.567206 -0.0317,-0.518583 -0.889,-0.60325 -0.96308,-0.08467 z"
         fill="#212529"
         style="fill:#f48c06;fill-opacity:1;stroke-width:0.264583" /><path
         id="Vector_2"
         d="m 123.96007,45.262676 c 0.13759,1.815042 -0.35454,2.19075 -1.09008,2.767542 -0.0953,0.07408 -0.0582,0.227541 0.0582,0.254 0.53975,0.121708 1.41287,-0.07408 2.21192,1.973791 0.0582,0.142875 0.30691,0.08467 0.27516,-0.06879 -0.28046,-1.27 -0.17991,-2.286 0.79904,-2.587625 0.11113,-0.03175 0.0847,-0.243417 -0.0264,-0.254 -0.94192,-0.08996 -1.37584,-0.142875 -1.94734,-2.121959 -0.0423,-0.148166 -0.29104,-0.116416 -0.28046,0.03704 z"
         fill="#aeaeae"
         style="fill:#fcc681;fill-opacity:1;stroke-width:0.264583" /><path
         id="Vector_3"
         d="m 120.36183,52.306228 c 0.28577,3.783542 -0.74083,4.566708 -2.27012,5.767917 -0.20108,0.15875 -0.12171,0.470958 0.127,0.529166 1.12183,0.248709 2.94747,-0.15875 4.60905,4.111625 0.11642,0.296334 0.64029,0.169334 0.5715,-0.137583 -0.57679,-2.645833 -0.37041,-4.7625 1.66688,-5.392208 0.22754,-0.06879 0.17991,-0.502709 -0.0582,-0.529167 -1.9685,-0.185208 -2.86279,-0.296333 -4.05871,-4.423833 -0.09,-0.301625 -0.60326,-0.238125 -0.5821,0.07408 z"
         fill="#aeaeae"
         style="fill:#fcc681;fill-opacity:1;stroke-width:0.264583" /></g></g></svg>
