<?xml version="1.0" encoding="UTF-8" standalone="no"?>
<svg
   width="85.000488"
   height="61.405678"
   viewBox="0 0 85.000488 61.405678"
   fill="none"
   version="1.1"
   id="svg14"
   sodipodi:docname="products.svg"
   inkscape:version="1.4.2 (ebf0e940d0, 2025-05-08)"
   xmlns:inkscape="http://www.inkscape.org/namespaces/inkscape"
   xmlns:sodipodi="http://sodipodi.sourceforge.net/DTD/sodipodi-0.dtd"
   xmlns="http://www.w3.org/2000/svg"
   xmlns:svg="http://www.w3.org/2000/svg">
  <sodipodi:namedview
     id="namedview14"
     pagecolor="#ffffff"
     bordercolor="#000000"
     borderopacity="0.25"
     inkscape:showpageshadow="2"
     inkscape:pageopacity="0.0"
     inkscape:pagecheckerboard="0"
     inkscape:deskcolor="#d1d1d1"
     showgrid="false"
     inkscape:zoom="4.6104651"
     inkscape:cx="15.508197"
     inkscape:cy="23.750315"
     inkscape:window-width="2560"
     inkscape:window-height="996"
     inkscape:window-x="1920"
     inkscape:window-y="0"
     inkscape:window-maximized="1"
     inkscape:current-layer="svg14" />
  <path
     opacity="0.2"
     d="m 60.3181,54.497577 -8.0935,1.3638 12.4256,5.5443 7.4963,-1.1677 z"
     fill="#212529"
     id="path8" />
  <path
     opacity="0.2"
     d="m 60.3181,19.119677 -8.0935,1.3727 12.4256,5.5443 7.4963,-1.1766 z"
     fill="#212529"
     id="path4" />
  <g
     style="mix-blend-mode:multiply;fill:#f48c06;fill-opacity:0.253639"
     id="g13"
     transform="translate(0,-12.000423)">
    <path
       d="M 27.2853,29.9609 11.2765,35.7191 10.082,51.4962 24.875186,58.463958 38.7036,53.2343 39.0334,36.5303 Z"
       fill="#aeaeae"
       id="path13"
       sodipodi:nodetypes="ccccccc"
       style="fill:#f48c06;fill-opacity:0.253639" />
  </g>
  <path
     d="m 60.3262,6.4445772 11.8194,-5.0095 11.4183,5.0095 -12.1492,5.4639998 z"
     stroke="#212529"
     stroke-width="2.87018"
     stroke-linecap="round"
     stroke-linejoin="round"
     id="path1"
     style="stroke:#f48c06;stroke-opacity:1" />
  <path
     d="M 84.9911,7.1570772 V 19.021077 c 0,0.5794 -0.3476,1.0785 -0.8468,1.3103 l -11.4718,5.1877 c -0.4011,0.1783 -0.8379,0.1604 -1.2033,-0.0089 l -11.4629,-5.4284 c -0.517,-0.2139 -0.8379,-0.7309 -0.82,-1.2568 L 59.4537,7.1837772 c 0.0089,-0.4813 0.41,-0.8557 0.8824,-0.8467 0.4457,0.0089 0.8111,0.3654 0.8468,0.8022 l 0.8735,11.6054998 -0.82,-1.2568 11.4629,5.4283 h -1.2034 l 11.4718,-5.2055 -0.8468,1.3103 V 7.1570772 c 0.0446,-1.8808 2.8256,-1.8986 2.8702,0 z"
     fill="#212529"
     id="path2"
     style="fill:#f48c06;fill-opacity:1" />
  <path
     d="m 72.7623,12.593977 0.5437,10.9459 c 0.0357,1.9878 -2.9058,1.9878 -2.8701,0 l 0.5437,-10.9459 c 0.0713,-1.1142 1.7203,-1.1142 1.7827,0 z"
     fill="#212529"
     id="path3"
     style="fill:#f48c06;fill-opacity:1" />
  <path
     d="m 60.3262,41.813677 11.8194,-5.0094 11.4183,5.0094 -12.1492,5.4641 z"
     stroke="#212529"
     stroke-width="2.87018"
     stroke-linecap="round"
     stroke-linejoin="round"
     id="path5"
     style="stroke:#f48c06;stroke-opacity:1" />
  <path
     d="m 84.6165,42.535577 0.3833,11.864 c 0.0178,0.5704 -0.312,1.0696 -0.8023,1.2924 0,0.0357 -11.4985,5.1788 -11.5074,5.2056 -0.4011,0.1782 -0.8379,0.1604 -1.2033,-0.0089 l -11.4629,-5.4284 c -0.517,-0.2139 -0.8379,-0.7309 -0.8201,-1.2568 l 0.2674,-11.6412 c 0.009,-0.4813 0.4101,-0.8557 0.8825,-0.8468 0.4457,0.0089 0.8111,0.3655 0.8468,0.8023 l 0.8735,11.6054 -0.82,-1.2568 11.4628,5.4284 h -1.2033 l 11.4718,-5.2055 -0.8468,1.3103 0.3833,-11.864 c 0.0535,-1.3371 2.0412,-1.3371 2.1036,0 z"
     fill="#212529"
     id="path6"
     style="fill:#f48c06;fill-opacity:1" />
  <path
     d="m 73.8404,47.964177 0.5438,10.9458 c 0.0356,1.9878 -2.9059,1.9878 -2.8702,0 l 0.5437,-10.9458 c 0.0713,-1.1142 1.7203,-1.1142 1.7827,0 z"
     fill="#212529"
     id="path7"
     style="fill:#f48c06;fill-opacity:1" />
  <path
     d="m 25.3597,31.340377 0.5438,13.6289 c 0.0178,1.961 -2.888,1.9699 -2.8702,0 l 0.5437,-13.6289 c 0.0624,-1.1231 1.7293,-1.132 1.7827,0 z"
     fill="#212529"
     id="path11"
     style="fill:#f48c06;fill-opacity:1" />
  <path
     opacity="0.2"
     d="M 10.0813,39.478077 0,41.189477 l 15.474,6.8991 9.3414,-1.4529 z"
     fill="#212529"
     id="path12" />
  <defs
     id="defs14" />
  <path
     d="m 40.4677,24.575077 v 14.7787 c 0,0.5794 -0.3476,1.0785 -0.8468,1.3103 l -14.2884,6.4624 c -0.4012,0.1782 -0.8379,0.1604 -1.2034,-0.009 -0.0535,-0.0445 -14.28846,-6.7565 -14.33303,-6.7921 -0.49025,-0.2318 -0.77548,-0.722 -0.76657,-1.239 l 0.1961,-14.4935 c 0,-0.4813 0.40111,-0.8557 0.8735,-0.8557 0.4546,0 0.8201,0.3655 0.8557,0.8111 l 0.9449,14.4668 -0.8201,-1.2568 14.2885,6.7654 h -1.2033 l 14.2885,-6.4802 -0.8468,1.3103 v -14.7787 c 0.0356,-1.8808 2.8256,-1.8986 2.8701,0 z"
     fill="#212529"
     id="path10"
     style="fill:#f48c06;fill-opacity:1" />
  <path
     d="m 10.082,23.683077 17.2033,-5.7226 11.7481,5.7226 -15.1353,6.8099 -13.8072,-6.8099 z"
     stroke="#212529"
     stroke-width="2.87018"
     stroke-linecap="round"
     stroke-linejoin="round"
     id="path9"
     style="stroke:#f48c06;stroke-opacity:1" />
</svg>
