<?xml version="1.0" encoding="UTF-8" standalone="no"?>
<svg
   width="86"
   height="86"
   viewBox="0 0 86 86"
   fill="none"
   version="1.1"
   id="svg20"
   sodipodi:docname="tempo.svg"
   inkscape:version="1.4.2 (ebf0e940d0, 2025-05-08)"
   xmlns:inkscape="http://www.inkscape.org/namespaces/inkscape"
   xmlns:sodipodi="http://sodipodi.sourceforge.net/DTD/sodipodi-0.dtd"
   xmlns="http://www.w3.org/2000/svg"
   xmlns:svg="http://www.w3.org/2000/svg">
  <sodipodi:namedview
     id="namedview20"
     pagecolor="#ffffff"
     bordercolor="#000000"
     borderopacity="0.25"
     inkscape:showpageshadow="2"
     inkscape:pageopacity="0.0"
     inkscape:pagecheckerboard="0"
     inkscape:deskcolor="#d1d1d1"
     inkscape:zoom="3.2600912"
     inkscape:cx="-92.788817"
     inkscape:cy="56.59351"
     inkscape:window-width="2560"
     inkscape:window-height="996"
     inkscape:window-x="1920"
     inkscape:window-y="0"
     inkscape:window-maximized="1"
     inkscape:current-layer="svg20" />
  <path
     opacity="0.2"
     d="m 38.828613,16.456609 c 0,0 20.712002,6.206893 18.824302,28.451293 -1.2261,14.4599 -9.844987,20.9308 -23.21513,25.461053 0,0 24.556416,4.019394 28.275315,-23.414755 C 66.35986,20.052213 38.828613,16.446909 38.828613,16.446909 Z"
     fill="#212529"
     id="path17"
     style="opacity:0.373997;fill:#fccd90;fill-opacity:1"
     sodipodi:nodetypes="cccscc" />
  <path
     d="m 72.8316,41.7666 2.2088,0.4865 v 5.0892 h -2.8802"
     stroke="#212529"
     stroke-width="1.94614"
     stroke-linecap="round"
     stroke-linejoin="round"
     id="path2"
     style="stroke:#c67205;stroke-opacity:1" />
  <path
     d="m 75.042,38.8867 4.0188,0.0292 c 0,0 0.3697,2.4327 0.3697,5.1281 0,2.6954 -0.3697,5.7217 -0.3697,5.7217 L 75.042,49.7365 v -9.9448"
     stroke="#212529"
     stroke-width="1.94614"
     stroke-linecap="round"
     stroke-linejoin="round"
     id="path3"
     style="stroke:#f48c06;stroke-opacity:1" />
  <g
     id="g22"
     style="fill:#ba6b05;fill-opacity:1">
    <path
       d="m 38.4622,16.642 -0.7104,4.2231 C 37.5767,21.9063 36.0003,21.7409 36.049,20.69 l 0.1751,-4.2815 c 0.107,-1.5764 2.4619,-1.3331 2.2381,0.2335 z"
       fill="#212529"
       id="path4"
       style="fill:#ba6b05;fill-opacity:1" />
    <path
       d="m 18.3309,22.8405 2.4132,2.1895 c 0.4574,0.3989 -0.1459,1.119 -0.6227,0.7492 l -2.6079,-1.9461 c -0.7006,-0.5352 0.1557,-1.5764 0.8174,-0.9926 z"
       fill="#212529"
       id="path5"
       style="fill:#ba6b05;fill-opacity:1" />
    <path
       d="m 51.0174,61.9968 2.4133,2.1894 c 0.4573,0.399 -0.146,1.119 -0.6228,0.7493 l -2.6078,-1.9462 c -0.7007,-0.5352 0.1556,-1.5763 0.8173,-0.9925 z"
       fill="#212529"
       id="path6"
       style="fill:#ba6b05;fill-opacity:1" />
    <path
       d="m 51.3477,24.9235 2.0824,-2.5008 c 0.3795,-0.4671 1.1288,0.0973 0.7785,0.5839 l -1.8391,2.6856 c -0.506,0.7201 -1.5764,-0.0875 -1.0218,-0.7687 z"
       fill="#212529"
       id="path7"
       style="fill:#ba6b05;fill-opacity:1" />
    <path
       d="m 17.0342,64.4391 2.0824,-2.5008 c 0.3795,-0.467 1.1288,0.0973 0.7785,0.5839 l -1.8391,2.6857 c -0.506,0.72 -1.5764,-0.0876 -1.0218,-0.7688 z"
       fill="#212529"
       id="path8"
       style="fill:#ba6b05;fill-opacity:1" />
    <path
       d="m 58.4993,42.2536 5.7314,0.6714 c 1.0704,0.1265 0.9536,1.7418 -0.1167,1.7224 l -5.7704,-0.1265 c -1.5666,-0.0681 -1.4012,-2.4133 0.1557,-2.2673 z"
       fill="#212529"
       id="path9"
       style="fill:#ba6b05;fill-opacity:1" />
    <path
       d="m 8.80504,42.2536 5.74116,0.6714 c 1.0703,0.1265 0.9536,1.7418 -0.1168,1.7224 L 8.65908,44.5209 C 7.09243,44.4528 7.25786,42.1076 8.81477,42.2536 Z"
       fill="#212529"
       id="path10"
       style="fill:#ba6b05;fill-opacity:1" />
    <path
       d="m 33.5683,70.0925 0.399,-5.7606 c 0.0778,-1.0801 1.6931,-1.0412 1.7223,0.0389 l 0.146,5.7703 c 0,1.5667 -2.3451,1.518 -2.2673,-0.0486 z"
       fill="#212529"
       id="path11"
       style="fill:#ba6b05;fill-opacity:1" />
  </g>
  <g
     id="g21"
     style="fill:#fccd90;fill-opacity:1">
    <path
       d="m 36.8184,27.7749 c -1.3526,5.3227 -1.1483,11.0443 -0.399,16.4643 0,0 -0.7687,-0.9925 -0.7687,-0.9828 5.4686,1.411 11.3265,0.7979 16.912,0.3406 0.4378,-0.0389 0.8271,0.2822 0.8757,0.7201 0.0389,0.4281 -0.2627,0.8076 -0.6811,0.866 -1.4596,0.2141 -2.9192,0.4087 -4.3886,0.5741 -4.515,0.399 -9.1371,0.8952 -13.6035,-0.2335 -0.4476,-0.146 -0.7395,-0.545 -0.7687,-0.9926 -0.3795,-4.3204 -0.3601,-8.6895 0.3503,-12.971 0.253,-1.4401 0.5352,-2.8219 1.0314,-4.2815 0.1362,-0.399 0.5644,-0.613 0.9634,-0.4768 0.4086,0.1362 0.613,0.5838 0.4768,0.9731 z"
       fill="#aeaeae"
       id="path12"
       style="fill:#fccd90;fill-opacity:1" />
    <path
       d="m 35.447,24.9717 -2.7538,2.8511 c -0.8368,0.8661 -0.214,1.4694 0.3114,1.5472 l 5.2546,0.7687 c 1.3136,0.4185 1.3526,-0.4281 1.0898,-0.9049 l -2.4813,-4.5151 c -0.2141,-0.3892 -0.8368,-0.4378 -1.4304,0.253 z"
       fill="#aeaeae"
       id="path13"
       style="fill:#fccd90;fill-opacity:1" />
    <path
       d="m 55.794,45.0161 -4.155,2.8901 c -0.4379,0.3016 -1.0412,-0.0098 -1.0315,-0.545 l 0.0682,-5.0113 c 0,-0.5449 0.5157,-1.878 1.5277,-0.9341 l 3.6198,2.5494 c 0.3503,0.2725 0.3308,0.8077 -0.0292,1.0607 z"
       fill="#aeaeae"
       id="path14"
       style="fill:#fccd90;fill-opacity:1" />
    <path
       d="m 35.271,46.7002 c 1.4242,0 2.5787,-1.1544 2.5787,-2.5786 0,-1.4241 -1.1545,-2.5786 -2.5787,-2.5786 -1.4241,0 -2.5786,1.1545 -2.5786,2.5786 0,1.4242 1.1545,2.5786 2.5786,2.5786 z"
       fill="#aeaeae"
       id="path15"
       style="fill:#fccd90;fill-opacity:1" />
  </g>
  <path
     d="M 38.4051,9.36424 C 25.7163,11.3104 11.8695,17.538 6.60515,29.9739 3.25778,37.9044 3.62755,47.421 6.04077,55.5462 9.89413,68.8286 23.0111,76.1656 36.42,75.3287 52.0768,74.8324 65.7484,63.0486 67.568,47.3627 69.4266,31.6086 61.8269,16.6623 45.9075,12.3126 41.6552,11.0282 37.1888,10.5611 32.7321,10.4443 32.0023,10.4346 31.4185,9.82158 31.4379,9.09178 31.4574,8.41063 31.9926,7.86571 32.6543,7.81706 37.3445,7.48621 42.1222,7.75867 46.8222,8.82905 56.3485,10.8628 65.0673,17.4699 69.0763,26.4903 75.2748,39.8311 73.4162,57.0058 62.6054,67.4176 52.2908,77.7419 36.1087,80.7682 22.4078,76.4088 13.0955,73.5966 5.24285,66.1137 2.20687,56.8112 -0.760999,47.6254 -0.975075,37.3303 2.93667,28.3489 6.87761,19.3382 15.3822,13.1592 24.3929,9.99674 c 4.5053,-1.54719 9.069,-2.58837 13.8468,-2.89002 0.6227,-0.03893 1.1579,0.43788 1.1871,1.06064 0.039,0.61304 -0.4281,1.12876 -1.0217,1.18715 z"
     fill="#212529"
     id="path16"
     style="fill:#f48c06;fill-opacity:1" />
  <path
     d="M 28.7734,9.14049 C 13.6811,13.023 0.992241,24.6707 0.778166,41.028 c 0,0.4476 -0.7200727,0.4574 -0.710342,-0.0097 C -0.136521,24.0771 12.7664,11.6607 28.3355,7.243 29.62,6.92189 30.0871,8.84857 28.7734,9.14049 Z"
     fill="#212529"
     id="path18"
     style="fill:#f48c06;fill-opacity:1" />
  <path
     d="m 81.1322,35.1014 c 2.6565,2.0045 2.9582,5.566 2.277,8.5533 -0.0389,0.2238 -0.2627,0.3795 -0.4865,0.3406 -0.2335,-0.039 -0.3795,-0.2628 -0.3406,-0.4866 l 0.1071,-1.0314 c 0.1362,-2.1797 -0.4768,-4.8557 -2.4133,-6.0525 -0.9244,-0.5547 -0.0194,-1.9364 0.8563,-1.3137 z"
     fill="#212529"
     id="path19"
     style="fill:#fccd90;fill-opacity:1" />
  <path
     d="m 82.5054,31.8807 c 3.5615,3.5128 4.1161,8.8744 2.9095,13.4965 -0.0487,0.2238 -0.2725,0.3698 -0.4963,0.3211 -0.2238,-0.0486 -0.36,-0.253 -0.3308,-0.4768 0.0876,-0.5644 0.1946,-1.1385 0.2627,-1.7029 0.4379,-3.6879 -0.5254,-7.911 -3.3376,-10.441 -0.8758,-0.652 0.1946,-1.9559 1.0022,-1.2066 z"
     fill="#212529"
     id="path20"
     style="fill:#fccd90;fill-opacity:1" />
  <defs
     id="defs20" />
  <path
     d="M 34.415,70.989 C 44.749,69.6461 55.988,64.7029 60.4738,54.7289 63.3347,48.258 63.1206,40.6194 61.2231,33.915 59.238,27.0937 54.0126,21.5278 47.3277,19.134 29.8221,12.702 9.45573,24.3691 9.84496,43.8597 9.71846,54.8652 14.0973,65.4425 25.5601,68.4103 c 3.4057,0.9828 7.0061,1.2845 10.587,1.2358 0.3697,0 0.6714,0.2919 0.6714,0.652 0,0.36 -0.2822,0.6617 -0.6422,0.6714 C 28.8296,71.2711 20.8115,69.8894 15.3428,64.518 9.81577,59.2051 8.0837,51.2453 7.99612,43.8695 7.61663,23.1333 29.2966,10.6196 47.9115,17.5382 c 7.1131,2.5397 12.8056,8.6214 14.8685,15.8902 3.2014,10.6746 1.3526,23.5386 -7.8916,30.642 -2.89,2.3549 -6.2179,4.0966 -9.6723,5.3811 -3.4739,1.2455 -7.0645,2.0921 -10.7524,2.4229 -0.5839,0.039 -0.6423,-0.8271 -0.0682,-0.8757 z"
     fill="#212529"
     id="path1"
     style="fill:#f48c06;fill-opacity:1" />
</svg>
